<svg width="1280" height="520" viewBox="0 0 1280 520" fill="none" xmlns="http://www.w3.org/2000/svg">
  <rect width="1280" height="520" rx="36" fill="#071019"/>
  <rect x="1" y="1" width="1278" height="518" rx="35" stroke="#29415C" stroke-opacity=".75" stroke-width="2"/>
  <circle cx="160" cy="92" r="280" fill="#4F8FF7" fill-opacity=".18"/>
  <circle cx="1088" cy="120" r="320" fill="#F6B74A" fill-opacity=".12"/>
  <path d="M0 390C156 329 242 466 396 398C530 339 615 240 746 284C907 338 995 256 1280 292V520H0V390Z" fill="#0D1D2D"/>
  <path d="M0 418C162 352 250 492 408 424C545 365 624 267 760 312C915 363 1003 285 1280 322" stroke="#4F8FF7" stroke-opacity=".35" stroke-width="3"/>
  <path d="M0 454C179 397 274 492 438 452C590 415 662 324 814 368C961 411 1048 346 1280 374" stroke="#F6B74A" stroke-opacity=".38" stroke-width="3"/>
  <g transform="translate(92 88)">
    <rect width="96" height="96" rx="26" fill="#0C1B2A" stroke="#29415C" stroke-width="2"/>
    <rect x="28" y="27" width="48" height="9" rx="4.5" fill="#4F8FF7"/>
    <rect x="20" y="44" width="58" height="9" rx="4.5" fill="#F6B74A"/>
    <rect x="28" y="61" width="48" height="9" rx="4.5" fill="#4F8FF7"/>
  </g>
  <text x="216" y="128" fill="#F7FAFC" font-family="Georgia, 'Times New Roman', 'Songti SC', serif" font-size="56" font-weight="700">FinGraph</text>
  <text x="218" y="174" fill="#9AA9BB" font-family="Inter, Arial, sans-serif" font-size="24">U.S. Equity Macro Intelligence Dashboard</text>
  <text x="92" y="268" fill="#F7FAFC" font-family="Georgia, 'Times New Roman', 'Songti SC', serif" font-size="58" font-weight="700">美股金融分析图谱</text>
  <text x="94" y="324" fill="#B8C4D4" font-family="Georgia, 'Times New Roman', 'Songti SC', serif" font-size="30">把真实数据源、九层宏观框架、原始链接和 AI 提问模板组织成一个可导出的 Skill Pack。</text>
  <g transform="translate(92 392)">
    <rect width="154" height="48" rx="24" fill="#4F8FF7" fill-opacity=".16" stroke="#4F8FF7" stroke-opacity=".5"/>
    <text x="77" y="31" fill="#8EB8FF" text-anchor="middle" font-family="Inter, Arial, sans-serif" font-size="18" font-weight="700">Next.js</text>
  </g>
  <g transform="translate(264 392)">
    <rect width="154" height="48" rx="24" fill="#43D08A" fill-opacity=".14" stroke="#43D08A" stroke-opacity=".48"/>
    <text x="77" y="31" fill="#79E7B0" text-anchor="middle" font-family="Inter, Arial, sans-serif" font-size="18" font-weight="700">Supabase</text>
  </g>
  <g transform="translate(436 392)">
    <rect width="154" height="48" rx="24" fill="#F6B74A" fill-opacity=".16" stroke="#F6B74A" stroke-opacity=".5"/>
    <text x="77" y="31" fill="#FFD27D" text-anchor="middle" font-family="Inter, Arial, sans-serif" font-size="18" font-weight="700">Vercel Cron</text>
  </g>
  <g transform="translate(608 392)">
    <rect width="154" height="48" rx="24" fill="#F06363" fill-opacity=".15" stroke="#F06363" stroke-opacity=".48"/>
    <text x="77" y="31" fill="#FF9C9C" text-anchor="middle" font-family="Inter, Arial, sans-serif" font-size="18" font-weight="700">Skill Pack</text>
  </g>
</svg>
